<svg xmlns="http://www.w3.org/2000/svg" viewBox="0 0 512 512">
  <defs>
    <linearGradient id="bgGrad" x1="0%" y1="0%" x2="100%" y2="100%">
      <stop offset="0%" style="stop-color:#0f172a"/>
      <stop offset="100%" style="stop-color:#1e293b"/>
    </linearGradient>
    <linearGradient id="rocketGrad" x1="0%" y1="0%" x2="100%" y2="100%">
      <stop offset="0%" style="stop-color:#38bdf8"/>
      <stop offset="100%" style="stop-color:#818cf8"/>
    </linearGradient>
    <linearGradient id="flameGrad" x1="0%" y1="0%" x2="0%" y2="100%">
      <stop offset="0%" style="stop-color:#fbbf24"/>
      <stop offset="50%" style="stop-color:#f97316"/>
      <stop offset="100%" style="stop-color:#ef4444"/>
    </linearGradient>
    <filter id="glow" x="-50%" y="-50%" width="200%" height="200%">
      <feGaussianBlur stdDeviation="8" result="coloredBlur"/>
      <feMerge>
        <feMergeNode in="coloredBlur"/>
        <feMergeNode in="SourceGraphic"/>
      </feMerge>
    </filter>
  </defs>
  
  <!-- Background -->
  <rect width="512" height="512" rx="96" fill="url(#bgGrad)"/>
  
  <!-- Decorative code brackets -->
  <text x="80" y="280" font-family="monospace" font-size="120" font-weight="bold" fill="#38bdf8" opacity="0.3">&lt;</text>
  <text x="360" y="280" font-family="monospace" font-size="120" font-weight="bold" fill="#818cf8" opacity="0.3">/&gt;</text>
  
  <!-- Rocket body -->
  <g filter="url(#glow)">
    <!-- Main rocket body -->
    <path d="M256 100 
             C256 100 320 160 320 260 
             L320 320 
             L192 320 
             L192 260 
             C192 160 256 100 256 100Z" 
          fill="url(#rocketGrad)"/>
    
    <!-- Rocket window -->
    <circle cx="256" cy="200" r="32" fill="#0f172a"/>
    <circle cx="256" cy="200" r="24" fill="#38bdf8" opacity="0.6"/>
    <circle cx="248" cy="192" r="8" fill="white" opacity="0.8"/>
    
    <!-- Left fin -->
    <path d="M192 280 L140 340 L192 320 Z" fill="url(#rocketGrad)"/>
    
    <!-- Right fin -->
    <path d="M320 280 L372 340 L320 320 Z" fill="url(#rocketGrad)"/>
    
    <!-- Rocket bottom -->
    <path d="M200 320 L200 360 L256 380 L312 360 L312 320 Z" fill="#64748b"/>
  </g>
  
  <!-- Flame -->
  <g filter="url(#glow)">
    <path d="M220 360 
             Q220 400 256 440 
             Q292 400 292 360 
             L256 380 Z" 
          fill="url(#flameGrad)"/>
    <path d="M235 365 
             Q235 390 256 420 
             Q277 390 277 365 
             L256 375 Z" 
          fill="#fef08a" opacity="0.8"/>
  </g>
  
  <!-- Stars -->
  <circle cx="100" cy="120" r="4" fill="white" opacity="0.8"/>
  <circle cx="420" cy="100" r="3" fill="white" opacity="0.6"/>
  <circle cx="400" cy="400" r="4" fill="white" opacity="0.7"/>
  <circle cx="120" cy="380" r="3" fill="white" opacity="0.5"/>
  <circle cx="80" cy="200" r="2" fill="white" opacity="0.6"/>
  <circle cx="440" cy="240" r="2" fill="white" opacity="0.5"/>
</svg>